<svg width="167" height="167" viewBox="0 0 167 167" fill="none" xmlns="http://www.w3.org/2000/svg">
<g opacity="0.86">
<path opacity="0.1" d="M121.83 38.2613L44.66 51.8684C36.9745 53.2236 31.8427 60.5525 33.1979 68.238L44.1282 130.227C45.4834 137.912 52.8123 143.044 60.4978 141.689L137.668 128.082C145.353 126.727 150.485 119.398 149.13 111.712L138.199 49.7234C136.844 42.0379 129.515 36.9061 121.83 38.2613Z" fill="#10105D"/>
<path d="M114.687 31.042L37.5172 44.6491C29.8316 46.0042 24.6999 53.3332 26.055 61.0187L36.9853 123.008C38.3405 130.693 45.6694 135.825 53.355 134.47L130.525 120.863C138.21 119.507 143.342 112.179 141.987 104.493L131.057 42.5041C129.701 34.8186 122.373 29.6868 114.687 31.042Z" fill="#10105D"/>
<path d="M112.307 24.9397L40.197 37.6545C33.9089 38.7633 29.7102 44.7597 30.8189 51.0479L42.6415 118.097C43.7503 124.385 49.7467 128.584 56.0348 127.475L128.144 114.76C134.433 113.652 138.631 107.655 137.522 101.367L125.7 34.3178C124.591 28.0296 118.595 23.8309 112.307 24.9397Z" fill="white" stroke="#10105D" stroke-width="3.2"/>
<path d="M42.7272 37.2084L58.565 127.029" stroke="#5630CE" stroke-width="2.56919"/>
<path d="M46.0732 56.1845C48.1692 55.815 49.5688 53.8162 49.1992 51.7201C48.8296 49.624 46.8308 48.2245 44.7348 48.5941C42.6387 48.9637 41.2392 50.9625 41.6087 53.0585C41.9783 55.1546 43.9771 56.5541 46.0732 56.1845Z" fill="#5630CE"/>
<path d="M48.9731 72.6306C51.0691 72.261 52.4687 70.2622 52.0991 68.1661C51.7295 66.0701 49.7307 64.6705 47.6347 65.0401C45.5386 65.4097 44.1391 67.4085 44.5086 69.5045C44.8782 71.6006 46.877 73.0002 48.9731 72.6306Z" fill="#5630CE"/>
<path d="M51.873 89.0766C53.969 88.707 55.3686 86.7082 54.999 84.6122C54.6294 82.5161 52.6306 81.1166 50.5346 81.4861C48.4385 81.8557 47.039 83.8545 47.4085 85.9506C47.7781 88.0466 49.7769 89.4462 51.873 89.0766Z" fill="#5630CE"/>
<path d="M54.7728 105.523C56.8688 105.153 58.2684 103.154 57.8988 101.058C57.5292 98.9622 55.5304 97.5626 53.4344 97.9322C51.3383 98.3018 49.9387 100.301 50.3083 102.397C50.6779 104.493 52.6767 105.892 54.7728 105.523Z" fill="#5630CE"/>
<g opacity="0.2">
<path d="M58.2778 51.4237L111.411 42.0549M60.5085 64.0745L113.642 54.7057M62.7392 76.7253L115.873 67.3565M64.9698 89.3761L118.103 80.0072M67.2005 102.027L120.334 92.658" stroke="#5630CE" stroke-width="1.2846"/>
<path d="M70.0364 44.1327L80.9667 106.122M82.6872 41.9021L93.6175 103.891M95.338 39.6714L106.268 101.66M107.989 37.4407L118.919 99.4296" stroke="#5630CE" stroke-width="1.2846"/>
</g>
<path d="M65.1961 68.4656L71.2189 102.623L120.557 93.9231" stroke="#10105D" stroke-width="1.92689" stroke-linecap="round"/>
<path d="M75.1639 95.4051C83.5733 91.3134 84.9148 76.7284 93.3242 72.6367C99.9476 69.5122 104.597 81.0844 111.593 72.6765" stroke="#5630CE" stroke-width="3.21149" stroke-linecap="round"/>
<path d="M93.9934 76.432C96.0894 76.0624 97.489 74.0636 97.1194 71.9676C96.7498 69.8715 94.751 68.472 92.655 68.8415C90.5589 69.2111 89.1594 71.2099 89.529 73.306C89.8985 75.402 91.8973 76.8016 93.9934 76.432Z" fill="#FEC514"/>
<path d="M109.776 25.3859L114.461 51.9525L105.867 47.5981L99.2799 54.6293L94.5955 28.0627" fill="#FEC514"/>
<path d="M109.776 25.3859L114.461 51.9525L105.867 47.5981L99.2799 54.6293L94.5955 28.0627" stroke="#10105D" stroke-width="1.92689" stroke-linejoin="round"/>
<path opacity="0.55" d="M42.1954 115.567C60.6872 116.872 83.0492 114.233 107.161 106.721" stroke="white" stroke-width="2.56919"/>
</g>
</svg>
