<?xml version="1.0" standalone="no"?>
<!DOCTYPE svg PUBLIC "-//W3C//DTD SVG 20010904//EN"
 "http://www.w3.org/TR/2001/REC-SVG-20010904/DTD/svg10.dtd">
<svg version="1.0" xmlns="http://www.w3.org/2000/svg"
 width="924.000000pt" height="559.000000pt" viewBox="0 0 924.000000 559.000000"
 preserveAspectRatio="xMidYMid meet">

<g transform="translate(0.000000,559.000000) scale(0.100000,-0.100000)"
fill="#000000" stroke="none">
<path d="M4795 4985 c-373 -72 -1113 -313 -1442 -470 -239 -114 -313 -195
-313 -343 0 -171 105 -565 241 -910 101 -254 166 -355 251 -392 113 -49 255
-33 603 66 263 75 750 236 875 290 30 13 120 51 200 84 238 101 316 151 368
239 25 42 27 55 27 151 0 81 -7 131 -28 220 -32 130 -117 420 -146 495 -141
372 -179 451 -248 516 -89 85 -169 96 -388 54z m143 -509 c94 -48 164 -144
197 -271 29 -114 11 -221 -51 -307 -124 -169 -367 -108 -481 122 -26 51 -28
64 -28 180 0 137 6 156 67 225 75 86 189 105 296 51z m-1141 -366 c91 -40 165
-140 207 -279 68 -229 -86 -444 -287 -401 -59 12 -80 23 -136 68 -95 77 -160
235 -147 361 7 63 40 147 74 186 25 30 80 66 121 81 43 16 109 9 168 -16z
m732 -496 c122 -37 124 -39 107 -72 -8 -15 -42 -58 -77 -96 l-63 -68 -80 7
c-98 8 -174 23 -182 36 -7 12 27 69 93 152 64 79 72 81 202 41z m101 -171
c-17 -32 -46 -79 -65 -105 -31 -43 -39 -48 -73 -48 -48 0 -116 21 -178 55
l-49 26 40 -6 c22 -3 72 -8 110 -11 69 -6 71 -5 115 29 25 20 63 59 85 88 49
64 57 49 15 -28z"/>
<path d="M5536 4704 c4 -14 19 -60 35 -102 53 -140 158 -479 184 -594 15 -62
30 -117 35 -121 16 -17 20 12 9 65 -31 151 -189 657 -231 741 -21 42 -42 50
-32 11z"/>
<path d="M6355 4521 c-9 -16 -10 -15 55 -28 30 -6 63 -14 73 -18 25 -10 21 12
-6 30 -32 20 -112 31 -122 16z"/>
<path d="M6489 4324 c-18 -20 -50 -44 -69 -54 -19 -11 -30 -19 -24 -20 7 0 15
-21 19 -47 8 -58 24 -89 62 -126 55 -52 186 -45 238 13 10 11 24 20 32 20 11
0 11 4 2 21 -6 13 -9 46 -7 78 5 51 3 58 -23 84 -38 37 -105 67 -155 67 -33 0
-46 -6 -75 -36z"/>
<path d="M6862 4321 c2 -5 27 -28 57 -51 40 -32 55 -39 62 -29 5 9 -2 19 -22
31 -16 10 -29 22 -29 26 0 9 -44 32 -61 32 -6 0 -9 -4 -7 -9z"/>
<path d="M2870 3818 c0 -65 193 -638 263 -777 32 -66 51 -65 28 1 -10 29 -26
69 -34 88 -52 116 -150 399 -207 598 -31 106 -50 140 -50 90z"/>
<path d="M6034 3500 c-12 -5 -40 -41 -62 -82 -47 -84 -126 -170 -198 -215
l-51 -31 -69 24 c-97 33 -156 31 -239 -7 -36 -17 -63 -35 -58 -39 4 -3 35 -27
68 -53 92 -71 254 -250 348 -384 28 -40 54 -73 57 -73 20 0 56 98 85 235 2 11
33 41 67 67 109 80 233 209 286 299 28 47 28 103 0 159 -41 81 -158 131 -234
100z"/>
<path d="M4825 2958 c-196 -68 -511 -169 -590 -190 -62 -17 -62 -25 0 -43 200
-58 451 2 655 156 70 53 149 134 139 143 -2 2 -94 -28 -204 -66z"/>
<path d="M3641 2649 c-24 -5 -55 -18 -67 -30 -28 -26 -92 -131 -100 -165 -6
-23 -28 -45 -105 -102 -41 -31 -126 -126 -173 -192 -41 -59 -42 -117 -4 -177
48 -73 162 -121 228 -95 16 6 46 42 80 97 l54 87 42 -5 41 -4 21 121 c22 125
80 319 126 419 l26 57 -63 -1 c-34 -1 -82 -5 -106 -10z"/>
<path d="M4660 2603 c-66 -12 -189 -56 -205 -73 -12 -13 -18 -34 -17 -59 3
-61 121 -513 141 -541 16 -22 26 -25 72 -23 56 2 191 39 256 70 52 24 120 95
146 151 18 37 22 65 22 137 -1 153 -58 255 -177 314 -53 27 -71 31 -137 30
-42 -1 -87 -4 -101 -6z m174 -215 c35 -35 45 -52 51 -90 9 -63 -1 -102 -36
-138 -29 -29 -100 -56 -123 -47 -6 3 -26 60 -44 128 -17 68 -35 134 -38 146
-8 29 20 41 93 42 49 1 56 -2 97 -41z"/>
<path d="M5110 1407 c-36 -13 -84 -35 -106 -50 l-42 -26 -21 23 c-29 31 -102
66 -137 66 -38 -1 -111 -34 -135 -62 -10 -13 -23 -39 -28 -58 -5 -19 -11 -264
-13 -545 -3 -474 -2 -513 15 -550 54 -119 186 -155 298 -81 68 45 68 49 71
464 3 357 4 372 24 399 60 82 186 80 241 -4 16 -24 19 -66 23 -388 6 -393 7
-401 67 -457 37 -35 73 -48 134 -48 87 0 142 36 174 114 15 34 16 81 13 360
-1 177 1 340 6 364 4 25 21 58 38 78 28 31 35 34 87 34 63 0 109 -22 138 -67
16 -24 18 -62 23 -393 5 -388 6 -397 56 -441 55 -48 164 -65 223 -35 41 22 88
80 100 123 17 58 14 628 -3 738 -31 200 -119 338 -261 406 -176 84 -346 74
-497 -27 -28 -19 -54 -37 -58 -39 -4 -3 -19 6 -34 20 -67 62 -183 105 -281
105 -27 0 -79 -11 -115 -23z"/>
<path d="M7055 1420 c-235 -37 -411 -171 -504 -385 -68 -153 -84 -304 -49
-455 17 -74 93 -223 144 -279 55 -62 151 -131 225 -165 118 -53 320 -71 464
-41 164 34 327 151 410 294 76 129 90 183 90 351 0 162 -8 195 -76 332 -123
247 -418 392 -704 348z m238 -404 c51 -25 100 -76 127 -132 29 -63 30 -194 1
-258 -26 -60 -83 -120 -139 -148 -60 -29 -188 -31 -239 -5 -95 50 -151 136
-160 247 -13 151 53 264 177 307 51 18 187 11 233 -11z"/>
<path d="M8525 1420 c-36 -6 -91 -25 -139 -50 l-79 -41 -21 25 c-32 37 -79 56
-139 56 -44 0 -62 -5 -96 -31 -24 -16 -48 -45 -56 -62 -16 -40 -31 -1005 -17
-1079 17 -89 91 -148 185 -148 93 0 143 30 178 105 17 36 19 70 19 345 0 338
8 401 54 449 71 74 247 66 295 -13 35 -56 42 -142 40 -455 -2 -290 -1 -299 20
-337 35 -62 82 -88 165 -92 91 -4 140 21 174 88 l23 45 -4 385 c-3 369 -4 388
-26 455 -85 260 -306 396 -576 355z"/>
</g>
</svg>
